<svg width="16" height="16" xmlns="http://www.w3.org/2000/svg" viewBox="0 0 16 16"><g fill="currentColor"><path opacity=".65" d="M1.86 15.635A1.86 1.86 0 0 1 0 13.775V9.69a1.86 1.86 0 0 1 3.72 0v4.085a1.86 1.86 0 0 1-1.86 1.86zM7.913 15.635a1.86 1.86 0 0 1-1.86-1.86V3.394a1.86 1.86 0 0 1 3.72 0v10.381a1.86 1.86 0 0 1-1.86 1.86z"/><path d="M14.14 4.084a1.86 1.86 0 1 0 0-3.72 1.86 1.86 0 0 0 0 3.72zM14.139 15.635a1.86 1.86 0 0 1-1.86-1.86V7.984a1.86 1.86 0 0 1 3.72 0v5.791a1.86 1.86 0 0 1-1.86 1.86z"/></g></svg>
