<svg width="48" height="16" xmlns="http://www.w3.org/2000/svg" viewBox="0 0 48 16"><path d="M19.336 5.07a5.682 5.682 0 0 0-1.612-.874 6.336 6.336 0 0 0-2.06-.278 6.676 6.676 0 0 0-2.301.34 4.58 4.58 0 0 0-1.697.931 3.974 3.974 0 0 0-1.356 3.09c0 .703.108 1.26.387 1.793a4.083 4.083 0 0 0 2.763 2.12 7.39 7.39 0 0 0 4.022 0 3.974 3.974 0 0 0 1.684-.86 3.78 3.78 0 0 0 1.538-3.223 3.914 3.914 0 0 0-1.368-3.04zm-2.763 4.542c-.218.351-.654.521-1.041.521-.497 0-.873-.17-1.091-.593-.23-.42-.352-.89-.352-1.37 0-.218 0-.52.074-.75.06-.219.108-.437.218-.631.132-.175.297-.323.484-.436.194-.13.421-.202.654-.206.485 0 .8.182 1.042.593.23.42.351.89.351 1.37 0 .69-.12 1.15-.351 1.502zM48 11.854l-.412-2.181a.121.121 0 0 0-.121-.121h-.17l-.69.17c-.219.06-.521.06-.8.06-.29 0-.534-.062-.752-.11a2.133 2.133 0 0 1-.641-.302 1.345 1.345 0 0 1-.436-.497 1.587 1.587 0 0 1-.194-.763c0-.521.169-.873.52-1.2a2.108 2.108 0 0 1 1.382-.448c.339 0 .63 0 .86.036l.57.182c.108.061.218 0 .278-.182l.521-2.132c0-.109-.06-.17-.17-.17-.392-.126-.8-.2-1.211-.218-.388-.06-.727-.06-1.09-.06a7.572 7.572 0 0 0-2.484.34 4.737 4.737 0 0 0-1.72.98 3.877 3.877 0 0 0-1.297 2.932c0 .63.085 1.212.327 1.745.232.517.59.967 1.042 1.308.436.34.97.655 1.612.86.69.19 1.403.288 2.12.291.508 0 1.03-.073 1.55-.12.41-.057.816-.146 1.212-.267.182.036.182-.073.182-.133zM36.187 3.106c.4.16.838.202 1.26.121.445-.095.86-.294 1.212-.581.29-.34.46-.69.423-1.151v-.06c.11-.17.037-.352-.12-.388h-.06c-.185-.29-.47-.5-.8-.593a2.265 2.265 0 0 0-1.393-.038 1.914 1.914 0 0 0-1.091.63 1.248 1.248 0 0 0-.412 1.017v.062c-.109.18-.036.362.134.411 0 0 .048 0 .048.049.23.224.501.401.8.52zm2.763.74h-3.271c-.17.011-.29.132-.29.254v8.177c0 .11.108.218.277.218h3.284c.12 0 .279-.12.279-.218v-8.19c0-.12-.11-.217-.28-.217zm-5.864 5.827a.436.436 0 0 1-.423-.449V6.56h1.708c.048 0 .12-.06.12-.097V4.027a.121.121 0 0 0-.12-.121h-1.734V2.137a.12.12 0 0 0-.12-.11L29.125 3.24a.121.121 0 0 0-.122.12v.57h-.957a.121.121 0 0 0-.12.108v2.364c0 .061.06.11.12.11h.957V8.97c0 1.212.303 2.084.873 2.604.305.279.658.5 1.042.655.46.155.944.229 1.43.218.46 0 .872 0 1.21-.06l.885-.17c.085-.062.146-.11.146-.17V9.722h-.061zM5.985 3.857a4.434 4.434 0 0 0-.97.121c-.242.049-.545.17-.715.218-.205.121-.387.17-.496.303v-.266c0-.097-.121-.206-.303-.206H.29c-.182 0-.291.11-.291.194v1.962c.218 0 .46.218.46.461v2.931c.015.26-.2.476-.46.461v2.144c0 .121.121.218.29.218h3.272c.194.013.302-.097.302-.205V7.286c-.012-.521.449-.932 1.03-.932.521 0 .97.411.97.86v5.002c0 .122.12.218.29.218h3.223c.17 0 .279-.096.279-.218V7.431c0-1.211-.303-2.107-.957-2.762a4.725 4.725 0 0 0-2.714-.8Zm21.164.218c-.06-.12-.169-.169-.35-.169-.643 0-1.152.278-1.152.278-.218.122-.447.219-.654.412v-.508c0-.122-.085-.218-.254-.218h-3.284c-.17 0-.278.108-.278.218v8.117c0 .096.109.206.278.206h3.272c.06 0 .121 0 .181-.037.049 0 .121-.073.121-.181V7.018c0-.278.207-.448.449-.448h1.575c.036 0 .096-.072.096-.12V4.147Z" class="st0" fill="currentColor"/></svg>
