<svg width="16" height="16" xmlns="http://www.w3.org/2000/svg" viewBox="0 0 16 16"><path d="M9.917.894a7.344 7.344 0 0 0-1.606.2c-.401.08-.904.28-1.185.361-.34.2-.642.281-.822.502v-.442c0-.16-.202-.34-.503-.34H.481c-.301 0-.481.18-.481.321v3.252c.361 0 .762.361.762.763v4.858a.723.723 0 0 1-.762.763v3.553c0 .2.2.361.481.361h5.42c.323.02.503-.16.503-.34V6.574c-.02-.863.743-1.545 1.706-1.545.863 0 1.606.682 1.606 1.425v8.29c0 .202.2.361.482.361h5.34c.28 0 .462-.16.462-.36v-7.93c0-2.008-.502-3.493-1.586-4.578A7.83 7.83 0 0 0 9.917.914Z" fill="currentColor"/></svg>
