<svg width="424" height="112" viewBox="0 0 424 112" fill="none" xmlns="http://www.w3.org/2000/svg">
<path d="M183.496 28.3354C180.841 26.1104 177.606 24.3921 173.857 23.1147C170.094 21.879 165.974 21.2333 161.51 21.2333C156.255 21.2333 151.617 21.9033 147.608 23.2223C143.585 24.5518 140.2 26.3742 137.472 28.7276C134.723 31.0707 132.637 33.8407 131.224 36.996C129.776 40.1722 129.082 43.6468 129.082 47.4131C129.082 51.516 129.898 55.1434 131.543 58.3334C133.202 61.5026 135.434 64.1789 138.27 66.3588C141.131 68.5387 144.449 70.198 148.205 71.3122C151.943 72.4369 156.001 72.9992 160.323 72.9992C164.7 72.9992 168.817 72.3952 172.645 71.2081C176.488 70.014 179.855 68.3131 182.743 66.0638C185.628 63.804 187.877 61.041 189.526 57.785C191.175 54.4978 191.997 50.7419 191.997 46.5106C191.997 42.8241 191.234 39.4154 189.748 36.3122C188.252 33.1985 186.169 30.55 183.496 28.3354ZM166.814 55.9557C165.28 57.962 163.166 58.9687 160.514 58.9687C157.542 58.9687 155.328 57.8023 153.936 55.4593C152.52 53.1232 151.801 50.3636 151.801 47.1562C151.801 45.6844 151.971 44.2057 152.29 42.7443C152.585 41.2968 153.089 40.016 153.811 38.9225C154.512 37.8152 155.397 36.9335 156.508 36.2567C157.619 35.5763 158.979 35.2535 160.632 35.2535C163.527 35.2535 165.658 36.4337 167.036 38.8184C168.411 41.1857 169.088 43.9731 169.088 47.1527C169.091 50.9884 168.324 53.9111 166.814 55.9557Z" fill="black"/>
<path d="M356.438 69.417L354.126 56.3306C354.061 55.9904 353.852 55.7509 353.526 55.5774C353.207 55.4177 352.842 55.4142 352.488 55.5288C351.1 55.921 349.673 56.223 348.222 56.4243C346.75 56.6326 345.14 56.7228 343.407 56.7228C341.793 56.7228 340.249 56.525 338.787 56.1154C337.343 55.7231 336.021 55.1261 334.847 54.352C333.695 53.5536 332.744 52.5331 332.057 51.2522C331.366 50.0165 331.001 48.5308 331.001 46.8056C331.001 43.8343 332.084 41.4565 334.24 39.6654C336.396 37.8847 339.186 36.9926 342.623 36.9926C344.751 36.9926 346.493 37.1384 347.889 37.3883C349.295 37.6452 350.454 37.9645 351.402 38.2839C352.262 38.6171 352.846 38.3116 353.161 37.3883L356.23 24.2117C356.23 23.6077 355.928 23.2189 355.331 23.0315C352.936 22.2956 350.503 21.8027 348.066 21.584C345.601 21.3445 343.407 21.223 341.429 21.223C335.653 21.223 330.654 21.9727 326.475 23.4237C322.257 24.8747 318.807 26.8185 316.054 29.2657C313.312 31.7025 311.275 34.4899 309.914 37.6382C308.564 40.7692 307.887 44.0356 307.887 47.3923C307.887 51.3147 308.619 54.831 310.08 57.9586C311.538 61.0931 313.621 63.7937 316.336 66.043C319.022 68.2854 322.31 70.0106 326.128 71.1769C329.981 72.3814 334.292 72.9715 339.11 72.9715C342.397 72.9715 345.507 72.784 348.42 72.43C351.367 72.0655 353.797 71.4615 355.779 70.5798C356.365 70.3369 356.57 69.9411 356.438 69.417Z" fill="black"/>
<path d="M285.345 16.6854C287.782 17.5983 290.322 17.7128 292.902 17.2199C295.682 16.6854 298.126 15.5294 300.087 13.6238C301.954 11.7875 303.017 9.65966 302.833 7.09792C302.833 7.01114 302.885 6.907 302.947 6.82369C303.638 5.86217 303.294 4.86941 302.124 4.45287C302.027 4.42857 301.909 4.35568 301.871 4.27931C300.785 2.57843 299.181 1.45029 297.181 0.735223C294.339 -0.233239 291.475 -0.181172 288.858 0.520009C286.181 1.27673 284.064 2.41528 282.394 4.16823C280.697 5.98367 279.749 8.01431 279.926 10.4164C279.926 10.5101 279.874 10.6281 279.832 10.701C279.121 11.6382 279.461 12.6379 280.645 13.0684C280.732 13.1031 280.853 13.1864 280.915 13.2662C281.953 14.8699 283.449 15.9703 285.345 16.6854Z" fill="black"/>
<path d="M302.062 21.2299H282.336C281.457 21.2299 280.76 21.8894 280.76 22.6739V23.2674V23.618V24.2151V70.014V70.5937V70.9651V71.5378C280.76 72.3293 281.457 72.9749 282.336 72.9749H302.062C302.93 72.9749 303.638 72.3258 303.638 71.5378V70.9651V70.5937V70.014V24.2151V23.618V23.2674V22.6739C303.638 21.8894 302.93 21.2299 302.062 21.2299Z" fill="black"/>
<path d="M266.712 56.2697C265.098 56.2697 263.789 54.9611 263.789 53.3504V48.5185V43.3083V39.2539L263.796 39.24V37.8446V37.4246H274.203C274.664 37.4246 275.036 37.1018 275.036 36.6852V22.3041C275.036 21.8876 274.664 21.5613 274.203 21.5613H263.796V10.6721C263.796 10.2591 263.435 9.91888 262.963 9.91888L242.559 17.4444C242.073 17.5902 241.712 17.7985 241.712 18.2046V21.5578H235.922C235.468 21.5578 235.103 21.8841 235.103 22.3006V36.6818C235.103 37.0983 235.468 37.4211 235.922 37.4211H241.712V37.8411V39.2262V52.1147C241.712 59.2931 243.448 64.5277 246.898 67.7767C248.37 69.1791 250.39 70.394 252.987 71.4319C255.538 72.4559 258.457 72.9696 261.713 72.9696C264.341 72.9696 266.771 72.8134 268.978 72.5149C271.183 72.2302 272.908 71.8449 274.15 71.3833C274.751 71.1021 275.036 70.7446 275.036 70.2829V56.6168C275.036 56.4745 274.99 56.3634 274.956 56.2489C274.883 56.2558 274.81 56.2732 274.741 56.2732H266.712V56.2697Z" fill="black"/>
<path d="M103.184 21.2299C101.066 21.2299 99.1363 21.4416 97.4389 21.8373C95.7449 22.2434 94.2454 22.7502 92.9298 23.3508C91.7704 23.868 90.7673 24.4546 89.889 25.0933V23.6771C89.889 22.8856 89.1844 22.2434 88.3027 22.2434H68.5933C67.7081 22.2434 67 22.8856 67 23.6771V35.3055C68.4996 35.4305 69.6763 36.6732 69.6763 38.197V56.0667C69.6763 57.5906 68.4996 58.8333 67 58.9548V71.0172V71.5621C67 72.364 67.7081 72.9992 68.5933 72.9992H88.3027C89.1844 72.9992 89.889 72.364 89.889 71.5621V71.0172V42.2653C89.889 42.2549 89.889 42.2445 89.896 42.2271H89.889V41.7099C89.889 41.7099 89.889 41.6925 89.896 41.6856C89.9689 38.683 92.6591 36.2636 95.981 36.2636C99.2022 36.2636 101.816 38.5442 102.028 41.4079C102.045 41.453 102.056 41.4808 102.066 41.5224V41.9633H102.028C102.045 41.9876 102.056 42.0292 102.066 42.0744V55.1851V55.7231V68.6637V69.2191V71.0172V71.5621C102.066 72.364 102.774 72.9992 103.652 72.9992H123.237C124.112 72.9992 124.83 72.364 124.83 71.5621V71.0172V62.0198V61.4714V55.7266V55.1885V44.1779V44.1571V43.6225V43.6086C124.83 36.215 122.897 30.6472 119.03 26.8844C115.163 23.1147 109.88 21.2299 103.184 21.2299Z" fill="black"/>
<path d="M230.785 22.4394C230.549 21.7243 229.643 21.464 228.872 21.464C225.002 21.464 222.027 23.0954 222.027 23.0954C220.579 23.6682 219.264 24.4839 218.056 25.5426V23.4148V22.7101C218.056 21.9083 217.337 21.2592 216.445 21.2592H200.918H198.093H196.798C195.903 21.2592 195.188 21.9117 195.188 22.7101V23.4113V70.8313V71.5359C195.188 72.3273 195.903 72.9973 196.798 72.9973H198.093H200.918H216.445C216.81 72.9973 217.132 72.8793 217.4 72.7161C217.771 72.5599 217.969 72.2822 218.028 71.8414C218.028 71.8275 218.028 71.8032 218.035 71.7789C218.035 71.7303 218.052 71.6921 218.052 71.6331V40.3299C218.052 38.7227 219.361 37.421 220.972 37.421H227.397L227.404 37.4141H230.014C230.476 37.4141 230.837 37.0878 230.837 36.6747V35.1509V28.4688C230.837 27.2123 230.837 25.9522 230.837 24.6956V22.8524C230.837 22.8385 230.837 22.8212 230.837 22.8212V22.3005L230.785 22.4394Z" fill="black"/>
<path d="M7.99438 88.1308H0V83.9431H20.6295V88.1308H12.6729V111.778H7.99438V88.1308Z" fill="black"/>
<path d="M24.079 88.1657C23.9383 88.0387 23.8696 87.8773 23.8696 87.6748V84.2423C23.8696 84.0157 23.9314 83.8338 24.0584 83.6965C24.182 83.5558 24.3605 83.4871 24.587 83.4871H28.1328C28.3594 83.4871 28.5276 83.5558 28.6408 83.6965C28.7541 83.8338 28.8091 84.0157 28.8091 84.2423V87.6748C28.8091 88.1279 28.5825 88.3545 28.1294 88.3545H24.5836C24.3845 88.3545 24.2163 88.2927 24.079 88.1657ZM23.9829 91.5604H28.658V111.778H23.9829V91.5604Z" fill="black"/>
<path d="M35.3896 109.719C33.9445 108.198 33.2236 105.541 33.2236 101.745C33.2236 99.0536 33.5497 96.9495 34.2053 95.4254C34.8575 93.9048 35.7946 92.8373 37.0132 92.2194C38.2317 91.6016 39.7866 91.2927 41.6711 91.2927C44.0842 91.2927 46.3874 91.557 48.5739 92.0821V94.763H43.0682C41.8118 94.763 40.813 94.9586 40.0715 95.3465C39.3301 95.7344 38.7775 96.4312 38.4136 97.4369C38.0498 98.4426 37.8644 99.8774 37.8644 101.738C37.8644 103.571 38.0463 104.971 38.4136 105.946C38.7775 106.911 39.3301 107.573 40.0715 107.923C40.813 108.277 41.8256 108.452 43.1059 108.452H48.876V111.092C47.8943 111.342 46.7444 111.558 45.4263 111.733C44.1048 111.908 42.8176 111.998 41.5613 111.998C38.8907 112.001 36.8381 111.239 35.3896 109.719Z" fill="black"/>
<path d="M52.6831 83H57.3582V98.951H59.9258L64.9784 91.5607H69.7703L63.3583 101.065L70.2989 111.778H65.5071L59.8537 103.139H57.3651V111.778H52.69V83H52.6831Z" fill="black"/>
<path d="M76.3087 111.039C75.0387 110.421 74.1188 109.381 73.5524 107.909C72.9895 106.44 72.708 104.36 72.708 101.669C72.708 98.9294 72.9757 96.8184 73.5147 95.3321C74.0536 93.8492 74.946 92.8057 76.192 92.2016C77.4346 91.5975 79.1886 91.2954 81.4541 91.2954C83.4381 91.2954 85.0068 91.4979 86.167 91.8995C87.3203 92.3011 88.1647 92.9979 88.6933 93.9934C89.2185 94.9854 89.4828 96.3756 89.4828 98.1605C89.4828 100.021 88.9473 101.353 87.8798 102.156C86.8089 102.959 85.2574 103.364 83.2219 103.364H77.3008C77.3522 104.672 77.5273 105.685 77.8294 106.402C78.1314 107.119 78.66 107.641 79.4323 107.967C80.1978 108.293 81.3099 108.462 82.7688 108.462H88.8787V111.211C87.5194 111.465 86.3077 111.654 85.2368 111.781C84.1692 111.904 82.9438 111.97 81.5605 111.97C79.3328 111.963 77.5788 111.654 76.3087 111.039ZM82.7757 100.536C83.6818 100.536 84.334 100.357 84.7356 100.011C85.1372 99.6536 85.3397 99.0392 85.3397 98.1605C85.3397 96.8527 85.0514 95.9465 84.4747 95.4453C83.8946 94.9442 82.8889 94.6902 81.4575 94.6902C80.3763 94.6902 79.5388 94.8618 78.9518 95.1982C78.358 95.538 77.9323 96.1216 77.668 96.9522C77.4037 97.7829 77.2699 98.9774 77.2699 100.536H82.7757Z" fill="black"/>
<path d="M96.5611 110.187C95.5931 109.129 95.1366 107.348 95.1847 104.832L95.3391 95.3236H92.1675V92.3064L95.4867 91.5513L96.1664 85.8945H99.822V91.5513H104.95V95.3236H99.822V104.791C99.822 105.975 100.042 106.795 100.484 107.262C100.92 107.729 101.494 107.997 102.197 108.072L104.724 108.336V111.769H101.367C99.1321 111.772 97.5291 111.244 96.5611 110.187Z" fill="black"/>
<path d="M111.626 111.795C110.044 111.658 108.897 111.462 108.194 111.208V108.459H116.905C117.935 108.459 118.687 108.318 119.147 108.043C119.614 107.765 119.844 107.199 119.844 106.348V105.63C119.844 104.95 119.627 104.439 119.188 104.103C118.745 103.759 118.035 103.595 117.056 103.595H113.998C109.927 103.595 107.892 101.823 107.892 98.2776V97.1449C107.892 95.1849 108.482 93.733 109.666 92.789C110.85 91.8451 112.848 91.3748 115.663 91.3748C116.792 91.3748 118.097 91.4572 119.566 91.6185C121.038 91.7833 122.174 91.9652 122.978 92.1643V94.9172H114.757C113.775 94.9172 113.054 95.0888 112.584 95.4252C112.12 95.7685 111.887 96.3383 111.887 97.1415V97.8589C111.887 98.6381 112.127 99.1598 112.604 99.4241C113.085 99.6884 113.837 99.8188 114.87 99.8188H117.997C119.929 99.8188 121.392 100.272 122.37 101.178C123.352 102.084 123.843 103.365 123.843 105.026V106.68C123.843 108.644 123.19 110.02 121.883 110.81C120.575 111.603 118.615 112.001 115.999 112.001C114.671 112.004 113.209 111.932 111.626 111.795Z" fill="black"/>
<path d="M144.589 88.1308H136.595V83.9431H157.224V88.1308H149.268V111.778H144.593V88.1308H144.589Z" fill="black"/>
<path d="M161.899 111.021C160.591 110.393 159.63 109.339 159.012 107.856C158.394 106.37 158.089 104.297 158.089 101.633C158.089 98.8665 158.394 96.7418 159.012 95.2624C159.63 93.7761 160.584 92.7497 161.882 92.1696C163.176 91.5895 164.93 91.3012 167.14 91.3012C169.375 91.3012 171.146 91.5964 172.44 92.1902C173.734 92.7806 174.695 93.8241 175.324 95.3173C175.955 96.8173 176.268 98.9214 176.268 101.637C176.268 104.352 175.965 106.452 175.361 107.935C174.757 109.418 173.8 110.462 172.492 111.066C171.184 111.67 169.403 111.972 167.137 111.972C164.954 111.965 163.207 111.649 161.899 111.021ZM169.763 107.777C170.377 107.475 170.837 106.854 171.139 105.91C171.441 104.966 171.589 103.531 171.589 101.592C171.589 99.68 171.441 98.2521 171.139 97.3116C170.837 96.3711 170.374 95.7532 169.763 95.4649C169.145 95.1765 168.27 95.0289 167.14 95.0289C166.035 95.0289 165.174 95.1765 164.556 95.4649C163.938 95.7532 163.485 96.3711 163.183 97.3116C162.881 98.2521 162.726 99.68 162.726 101.592C162.726 103.528 162.881 104.963 163.183 105.91C163.485 106.857 163.941 107.475 164.556 107.777C165.17 108.079 166.035 108.23 167.14 108.23C168.27 108.23 169.145 108.079 169.763 107.777Z" fill="black"/>
<path d="M193.934 110.341C192.668 109.263 191.785 107.694 191.295 105.649C190.8 103.596 190.56 100.991 190.56 97.8189C190.56 94.5786 190.842 91.9459 191.404 89.9207C191.974 87.8955 192.98 86.3508 194.422 85.2799C195.87 84.2089 197.916 83.6769 200.552 83.6769C203.621 83.6769 206.7 84.0545 209.793 84.8096V88.3932C208.862 88.2662 207.606 88.1495 206.037 88.0362C204.465 87.9229 202.9 87.868 201.342 87.868C199.656 87.868 198.383 88.1838 197.518 88.812C196.646 89.4401 196.049 90.4561 195.726 91.8669C195.4 93.2777 195.232 95.2754 195.232 97.8635C195.232 100.507 195.4 102.521 195.726 103.919C196.052 105.316 196.601 106.287 197.367 106.843C198.136 107.392 199.248 107.67 200.707 107.67C201.74 107.67 202.77 107.574 203.796 107.368C204.829 107.166 205.746 106.929 206.552 106.654V100.242H200.933V96.6175C201.685 96.5214 202.653 96.4287 203.837 96.3567C205.018 96.2846 206.178 96.2434 207.307 96.2434C208.814 96.2434 210.06 96.2846 211.039 96.3567V111.782H207.534L206.892 109.857C205.91 110.409 204.743 110.9 203.387 111.326C202.028 111.755 200.635 111.971 199.2 111.971C196.958 111.964 195.204 111.422 193.934 110.341Z" fill="black"/>
<path d="M216.355 91.5604H219.977L221.034 94.8007C221.913 93.6954 222.85 92.8373 223.842 92.2194C224.834 91.6016 225.96 91.2927 227.216 91.2927C227.82 91.2927 228.386 91.3682 228.915 91.5192V96.2733C227.957 96.1737 227.192 96.1188 226.612 96.1188C225.428 96.1188 224.408 96.3145 223.557 96.7058C222.699 97.0936 221.861 97.7184 221.031 98.5731V111.775H216.355V91.5604Z" fill="black"/>
<path d="M235.534 111.039C234.264 110.421 233.344 109.381 232.778 107.909C232.215 106.44 231.933 104.36 231.933 101.669C231.933 98.9294 232.201 96.8184 232.74 95.3321C233.279 93.8492 234.171 92.8057 235.417 92.2016C236.66 91.5975 238.414 91.2954 240.679 91.2954C242.663 91.2954 244.232 91.4979 245.392 91.8995C246.545 92.3011 247.39 92.9979 247.918 93.9934C248.444 94.9854 248.708 96.3756 248.708 98.1605C248.708 100.021 248.172 101.353 247.105 102.156C246.034 102.959 244.482 103.364 242.447 103.364H236.526C236.577 104.672 236.752 105.685 237.054 106.402C237.357 107.119 237.885 107.641 238.657 107.967C239.423 108.293 240.535 108.462 241.994 108.462H248.104V111.211C246.744 111.465 245.533 111.654 244.462 111.781C243.394 111.904 242.169 111.97 240.786 111.97C238.558 111.963 236.8 111.654 235.534 111.039ZM242.001 100.536C242.907 100.536 243.559 100.357 243.961 100.011C244.362 99.6536 244.565 99.0392 244.565 98.1605C244.565 96.8527 244.277 95.9465 243.7 95.4453C243.12 94.9442 242.114 94.6902 240.683 94.6902C239.601 94.6902 238.764 94.8618 238.177 95.1982C237.583 95.538 237.157 96.1216 236.893 96.9522C236.629 97.7829 236.495 98.9774 236.495 100.536H242.001Z" fill="black"/>
<path d="M253.709 110.621C252.768 109.701 252.294 108.469 252.294 106.907V105.212C252.294 103.602 252.844 102.321 253.939 101.364C255.03 100.413 256.661 99.9323 258.823 99.9323H264.593V98.1577C264.593 97.4026 264.466 96.7984 264.219 96.3488C263.965 95.8957 263.502 95.5524 262.825 95.3087C262.146 95.0753 261.164 94.9517 259.884 94.9517H253.777V92.2366C256.063 91.605 258.706 91.2927 261.696 91.2927C264.26 91.2927 266.165 91.7938 267.408 92.7995C268.654 93.8053 269.279 95.4907 269.279 97.8557V111.775H265.619L264.83 109.585C264.576 109.808 264.061 110.117 263.282 110.508C262.503 110.899 261.593 111.246 260.55 111.548C259.506 111.85 258.47 112.001 257.436 112.001C255.892 112.001 254.653 111.541 253.709 110.621ZM262.499 108.174C263.666 107.81 264.367 107.566 264.59 107.439V102.157L260.217 102.383C258.027 102.558 256.935 103.53 256.935 105.287V106.118C256.935 107.024 257.193 107.676 257.711 108.078C258.222 108.479 258.888 108.696 259.692 108.72C260.392 108.72 261.329 108.538 262.499 108.174Z" fill="black"/>
<path d="M276.826 110.187C275.858 109.129 275.402 107.348 275.45 104.832L275.604 95.3236H272.433V92.3064L275.752 91.5513L276.432 85.8945H280.087V91.5513H285.215V95.3236H280.087V104.791C280.087 105.975 280.307 106.795 280.75 107.262C281.186 107.729 281.759 107.997 282.463 108.072L284.989 108.336V111.769H281.632C279.397 111.772 277.798 111.244 276.826 110.187Z" fill="black"/>
<path d="M301.414 110.796C300.147 110.013 299.509 108.445 299.509 106.08V90.0153C299.509 87.8768 300.089 86.3322 301.246 85.3745C302.399 84.4202 303.796 83.9431 305.43 83.9431C307.795 83.9431 309.83 83.9809 311.543 84.0564C313.253 84.1319 315.209 84.2349 317.423 84.3585V88.2441H306.906C306.024 88.2441 305.344 88.4638 304.867 88.9031C304.39 89.3425 304.15 90.0015 304.15 90.8803V95.8197L315.728 96.084V99.7396L304.15 100.007V104.796C304.15 106.66 305.056 107.583 306.865 107.583H317.423V111.472C314.258 111.747 310.435 111.908 305.959 111.963C304.201 111.966 302.687 111.578 301.414 110.796Z" fill="black"/>
<path d="M320.255 91.5616H325.043L330.099 107.441L335.269 91.5616H340.019L332.664 111.779H327.309L320.255 91.5616Z" fill="black"/>
<path d="M345.576 111.039C344.31 110.421 343.39 109.381 342.827 107.909C342.257 106.44 341.976 104.36 341.976 101.669C341.976 98.9294 342.247 96.8184 342.786 95.3321C343.328 93.8492 344.22 92.8057 345.463 92.2016C346.706 91.5975 348.463 91.2954 350.722 91.2954C352.709 91.2954 354.281 91.4979 355.438 91.8995C356.595 92.3011 357.436 92.9979 357.961 93.9934C358.49 94.9854 358.754 96.3756 358.754 98.1605C358.754 100.021 358.222 101.353 357.147 102.156C356.08 102.959 354.528 103.364 352.493 103.364H346.572C346.623 104.672 346.795 105.685 347.097 106.402C347.399 107.119 347.934 107.641 348.7 107.967C349.469 108.293 350.581 108.462 352.04 108.462H358.15V111.211C356.79 111.465 355.579 111.654 354.508 111.781C353.437 111.904 352.211 111.97 350.832 111.97C348.6 111.963 346.85 111.654 345.576 111.039ZM352.043 100.536C352.949 100.536 353.602 100.357 354.007 100.011C354.405 99.6536 354.611 99.0392 354.611 98.1605C354.611 96.8527 354.319 95.9465 353.739 95.4453C353.162 94.9442 352.156 94.6902 350.722 94.6902C349.644 94.6902 348.803 94.8618 348.216 95.1982C347.629 95.5346 347.196 96.1216 346.936 96.9522C346.671 97.7829 346.541 98.9774 346.541 100.536H352.043Z" fill="black"/>
<path d="M363.286 91.5589H367.093L367.961 93.6699C368.891 92.9696 369.952 92.3827 371.147 91.9159C372.341 91.4525 373.529 91.2191 374.713 91.2191C376.927 91.2191 378.52 91.8644 379.501 93.1619C380.483 94.4559 380.977 96.1722 380.977 98.3072V111.773H376.299V98.877C376.299 97.7992 375.997 96.9514 375.393 96.3507C374.789 95.75 373.972 95.4445 372.942 95.4445C372.012 95.4445 371.154 95.5852 370.378 95.8598C369.602 96.1344 368.795 96.5498 367.965 97.1024V111.773H363.29V91.5589H363.286Z" fill="black"/>
<path d="M388.571 110.187C387.606 109.129 387.143 107.348 387.198 104.832L387.345 95.3236H384.181V92.3064L387.5 91.5513L388.176 85.8945H391.835V91.5513H396.963V95.3236H391.835V104.791C391.835 105.975 392.051 106.795 392.491 107.262C392.934 107.729 393.503 107.997 394.207 108.072L396.733 108.336V111.769H393.373C391.142 111.772 389.539 111.244 388.571 110.187Z" fill="black"/>
<path d="M403.639 111.795C402.053 111.658 400.91 111.462 400.206 111.208V108.459H408.918C409.951 108.459 410.696 108.318 411.163 108.043C411.626 107.765 411.86 107.199 411.86 106.348V105.63C411.86 104.95 411.64 104.439 411.197 104.103C410.761 103.759 410.051 103.595 409.069 103.595H406.014C401.936 103.595 399.904 101.823 399.904 98.2776V97.1449C399.904 95.1849 400.495 93.733 401.679 92.789C402.86 91.8485 404.857 91.3748 407.672 91.3748C408.805 91.3748 410.106 91.4572 411.578 91.6185C413.051 91.7833 414.187 91.9652 414.994 92.1643V94.9172H406.769C405.791 94.9172 405.067 95.0888 404.603 95.4252C404.137 95.7685 403.907 96.3383 403.907 97.1415V97.8589C403.907 98.6381 404.143 99.1598 404.624 99.4241C405.101 99.6884 405.853 99.8188 406.883 99.8188H410.013C411.949 99.8188 413.408 100.272 414.39 101.178C415.368 102.084 415.859 103.365 415.859 105.026V106.68C415.859 108.644 415.207 110.02 413.899 110.81C412.591 111.603 410.631 112.001 408.015 112.001C406.677 112.004 405.225 111.932 403.639 111.795Z" fill="black"/>
<path d="M420.1 111.621C419.959 111.498 419.891 111.333 419.891 111.13V107.55C419.891 107.07 420.127 106.833 420.608 106.833H423.282C423.759 106.833 423.999 107.07 423.999 107.55V111.13C423.999 111.583 423.759 111.81 423.282 111.81H420.608C420.406 111.813 420.237 111.752 420.1 111.621Z" fill="black"/>
</svg>
