<svg width="64" height="16" xmlns="http://www.w3.org/2000/svg" viewBox="0 0 64 16"><path d="M25.946 6.26a7.375 7.375 0 0 0-2.092-1.133 8.224 8.224 0 0 0-2.673-.361 8.665 8.665 0 0 0-2.988.44 5.944 5.944 0 0 0-2.202 1.21 5.158 5.158 0 0 0-1.76 4.01c0 .913.14 1.636.502 2.328a5.3 5.3 0 0 0 3.586 2.752 9.592 9.592 0 0 0 5.22 0 5.158 5.158 0 0 0 2.186-1.117 4.906 4.906 0 0 0 1.997-4.183 5.08 5.08 0 0 0-1.776-3.947zm-3.586 5.896c-.283.456-.849.677-1.352.677-.645 0-1.132-.22-1.416-.77a3.695 3.695 0 0 1-.456-1.778c0-.283 0-.676.095-.975.078-.283.141-.566.283-.818a2.264 2.264 0 0 1 .629-.566 1.573 1.573 0 0 1 .849-.267c.629 0 1.038.236 1.352.77a3.695 3.695 0 0 1 .456 1.777c0 .897-.157 1.494-.456 1.95zm40.792 2.91-.535-2.831a.157.157 0 0 0-.157-.157h-.22l-.897.22c-.283.079-.676.079-1.038.079-.377 0-.692-.08-.975-.142a2.768 2.768 0 0 1-.833-.393 1.746 1.746 0 0 1-.566-.645 2.06 2.06 0 0 1-.252-.99c0-.677.22-1.133.676-1.557a2.736 2.736 0 0 1 1.793-.582c.44 0 .818 0 1.117.047l.739.236c.141.079.283 0 .361-.236l.677-2.768c0-.141-.079-.22-.22-.22a6.007 6.007 0 0 0-1.573-.283c-.503-.078-.944-.078-1.415-.078a9.828 9.828 0 0 0-3.224.44 6.149 6.149 0 0 0-2.233 1.274 5.032 5.032 0 0 0-1.683 3.805c0 .818.11 1.573.425 2.265a4.356 4.356 0 0 0 1.352 1.698c.566.44 1.258.85 2.092 1.116a10.583 10.583 0 0 0 2.752.378c.66 0 1.336-.095 2.013-.157a10.08 10.08 0 0 0 1.572-.346c.236.047.236-.095.236-.173zM47.819 3.712a2.925 2.925 0 0 0 1.636.157 3.711 3.711 0 0 0 1.572-.755c.378-.44.598-.896.55-1.494v-.078c.142-.22.048-.456-.156-.503h-.079a1.808 1.808 0 0 0-1.038-.77A2.94 2.94 0 0 0 48.496.22a2.485 2.485 0 0 0-1.416.818 1.62 1.62 0 0 0-.534 1.32v.08c-.142.235-.047.47.173.534 0 0 .063 0 .063.063a3.177 3.177 0 0 0 1.037.676zm3.586.96h-4.246c-.22.015-.377.172-.377.33v10.614c0 .142.141.283.361.283h4.262c.157 0 .362-.157.362-.283V4.986c0-.158-.142-.283-.362-.283zm-7.611 7.563a.566.566 0 0 1-.55-.582v-3.46h2.217c.063 0 .157-.078.157-.125V4.907a.157.157 0 0 0-.157-.157h-2.25V2.454a.157.157 0 0 0-.156-.142l-4.403 1.573a.157.157 0 0 0-.158.157v.74h-1.242a.157.157 0 0 0-.157.14V7.99c0 .079.078.142.157.142h1.242v3.192c0 1.573.393 2.705 1.133 3.38a4.482 4.482 0 0 0 1.352.85 5.394 5.394 0 0 0 1.856.283c.597 0 1.132 0 1.572-.078l1.148-.22c.11-.08.189-.142.189-.22v-3.02h-.079zM8.616 4.687a5.755 5.755 0 0 0-1.258.157c-.314.063-.708.22-.928.283-.267.157-.503.22-.644.393v-.346c0-.125-.158-.267-.394-.267H1.225c-.236 0-.377.142-.377.252v2.547c.283 0 .597.283.597.598v3.805a.566.566 0 0 1-.597.598v2.783c0 .157.157.283.377.283h4.246c.252.016.393-.126.393-.267V9.137c-.016-.676.582-1.21 1.337-1.21.676 0 1.258.534 1.258 1.116v6.494c0 .158.157.283.377.283h4.183c.22 0 .362-.125.362-.283V9.326c0-1.573-.393-2.736-1.242-3.586a6.133 6.133 0 0 0-3.523-1.037Zm27.472.283c-.078-.157-.22-.22-.456-.22-.833 0-1.494.361-1.494.361-.283.158-.581.284-.849.535v-.66c0-.158-.11-.283-.33-.283h-4.262c-.22 0-.361.141-.361.283v10.536c0 .125.141.267.361.267h4.246c.079 0 .158 0 .236-.047.063 0 .157-.095.157-.236V8.79c0-.361.268-.582.582-.582h2.045c.047 0 .125-.094.125-.157V5.064Z" class="st0" fill="currentColor"/></svg>
