<svg width="290" height="107" viewBox="0 0 290 107" fill="none" xmlns="http://www.w3.org/2000/svg">
<path d="M116.496 28.3354C113.841 26.1104 110.606 24.3921 106.857 23.1147C103.094 21.879 98.9739 21.2333 94.5099 21.2333C89.2545 21.2333 84.617 21.9033 80.6078 23.2223C76.5847 24.5518 73.2003 26.3742 70.4719 28.7276C67.7227 31.0707 65.6365 33.8407 64.2238 36.996C62.7763 40.1722 62.082 43.6468 62.082 47.4131C62.082 51.516 62.8978 55.1434 64.5431 58.3334C66.2023 61.5026 68.4343 64.1789 71.2703 66.3588C74.1305 68.5387 77.449 70.198 81.2048 71.3122C84.9433 72.4369 89.0011 72.9992 93.3228 72.9992C97.6999 72.9992 101.817 72.3952 105.645 71.2081C109.488 70.014 112.855 68.3131 115.743 66.0638C118.628 63.804 120.877 61.041 122.526 57.785C124.175 54.4978 124.997 50.7419 124.997 46.5106C124.997 42.8241 124.234 39.4154 122.748 36.3122C121.252 33.1985 119.169 30.55 116.496 28.3354ZM99.8139 55.9557C98.2796 57.962 96.1657 58.9687 93.5137 58.9687C90.5423 58.9687 88.3277 57.8023 86.9358 55.4593C85.5195 53.1232 84.801 50.3636 84.801 47.1562C84.801 45.6844 84.9711 44.2057 85.2904 42.7443C85.5855 41.2968 86.0888 40.016 86.8108 38.9225C87.512 37.8152 88.3971 36.9335 89.5079 36.2567C90.6187 35.5763 91.9794 35.2535 93.6317 35.2535C96.5267 35.2535 98.658 36.4337 100.036 38.8184C101.411 41.1857 102.088 43.9731 102.088 47.1527C102.091 50.9884 101.324 53.9111 99.8139 55.9557Z" fill="black"/>
<path d="M289.438 69.417L287.126 56.3306C287.061 55.9904 286.852 55.7509 286.526 55.5774C286.207 55.4177 285.842 55.4142 285.488 55.5288C284.1 55.921 282.673 56.223 281.222 56.4243C279.75 56.6326 278.14 56.7228 276.407 56.7228C274.793 56.7228 273.249 56.525 271.787 56.1154C270.343 55.7231 269.021 55.1261 267.847 54.352C266.695 53.5536 265.744 52.5331 265.057 51.2522C264.366 50.0165 264.001 48.5308 264.001 46.8056C264.001 43.8343 265.084 41.4565 267.24 39.6654C269.396 37.8847 272.186 36.9926 275.623 36.9926C277.751 36.9926 279.493 37.1384 280.889 37.3883C282.295 37.6452 283.454 37.9645 284.402 38.2839C285.262 38.6171 285.846 38.3116 286.161 37.3883L289.23 24.2117C289.23 23.6077 288.928 23.2189 288.331 23.0315C285.936 22.2956 283.503 21.8027 281.066 21.584C278.601 21.3445 276.407 21.223 274.429 21.223C268.653 21.223 263.654 21.9727 259.475 23.4237C255.257 24.8747 251.807 26.8185 249.054 29.2657C246.312 31.7025 244.275 34.4899 242.914 37.6382C241.564 40.7692 240.887 44.0356 240.887 47.3923C240.887 51.3147 241.619 54.831 243.08 57.9586C244.538 61.0931 246.621 63.7937 249.336 66.043C252.022 68.2854 255.31 70.0106 259.128 71.1769C262.981 72.3814 267.292 72.9715 272.11 72.9715C275.397 72.9715 278.507 72.784 281.42 72.43C284.367 72.0655 286.797 71.4615 288.779 70.5798C289.365 70.3369 289.57 69.9411 289.438 69.417Z" fill="black"/>
<path d="M218.345 16.6854C220.782 17.5983 223.322 17.7128 225.902 17.2199C228.682 16.6854 231.126 15.5294 233.087 13.6238C234.954 11.7875 236.017 9.65966 235.833 7.09792C235.833 7.01114 235.885 6.907 235.947 6.82369C236.638 5.86217 236.294 4.86941 235.124 4.45287C235.027 4.42857 234.909 4.35568 234.871 4.27931C233.785 2.57843 232.181 1.45029 230.181 0.735223C227.339 -0.233239 224.475 -0.181172 221.858 0.520009C219.181 1.27673 217.064 2.41528 215.394 4.16823C213.697 5.98367 212.749 8.01431 212.926 10.4164C212.926 10.5101 212.874 10.6281 212.832 10.701C212.121 11.6382 212.461 12.6379 213.645 13.0684C213.732 13.1031 213.853 13.1864 213.915 13.2662C214.953 14.8699 216.449 15.9703 218.345 16.6854Z" fill="black"/>
<path d="M235.062 21.2299H215.336C214.457 21.2299 213.76 21.8894 213.76 22.6739V23.2674V23.618V24.2151V70.014V70.5937V70.9651V71.5378C213.76 72.3293 214.457 72.9749 215.336 72.9749H235.062C235.93 72.9749 236.638 72.3258 236.638 71.5378V70.9651V70.5937V70.014V24.2151V23.618V23.2674V22.6739C236.638 21.8894 235.93 21.2299 235.062 21.2299Z" fill="black"/>
<path d="M199.711 56.2697C198.097 56.2697 196.788 54.9611 196.788 53.3504V48.5185V43.3083V39.2539L196.795 39.24V37.8446V37.4246H207.202C207.664 37.4246 208.035 37.1018 208.035 36.6852V22.3041C208.035 21.8876 207.664 21.5613 207.202 21.5613H196.795V10.6721C196.795 10.2591 196.434 9.91888 195.962 9.91888L175.559 17.4444C175.073 17.5902 174.712 17.7985 174.712 18.2046V21.5578H168.922C168.467 21.5578 168.103 21.8841 168.103 22.3006V36.6818C168.103 37.0983 168.467 37.4211 168.922 37.4211H174.712V37.8411V39.2262V52.1147C174.712 59.2931 176.447 64.5277 179.898 67.7767C181.369 69.1791 183.39 70.394 185.986 71.4319C188.537 72.4559 191.457 72.9696 194.713 72.9696C197.34 72.9696 199.77 72.8134 201.978 72.5149C204.182 72.2302 205.907 71.8449 207.15 71.3833C207.75 71.1021 208.035 70.7446 208.035 70.2829V56.6168C208.035 56.4745 207.99 56.3634 207.955 56.2489C207.882 56.2558 207.81 56.2732 207.74 56.2732H199.711V56.2697Z" fill="black"/>
<path d="M36.1837 21.2299C34.0663 21.2299 32.1363 21.4416 30.4389 21.8373C28.7449 22.2434 27.2454 22.7502 25.9298 23.3508C24.7704 23.868 23.7673 24.4546 22.889 25.0933V23.6771C22.889 22.8856 22.1844 22.2434 21.3027 22.2434H1.59328C0.708123 22.2434 0 22.8856 0 23.6771V35.3055C1.49956 35.4305 2.67629 36.6732 2.67629 38.197V56.0667C2.67629 57.5906 1.49956 58.8333 0 58.9548V71.0172V71.5621C0 72.364 0.708123 72.9992 1.59328 72.9992H21.3027C22.1844 72.9992 22.889 72.364 22.889 71.5621V71.0172V42.2653C22.889 42.2549 22.889 42.2445 22.896 42.2271H22.889V41.7099C22.889 41.7099 22.889 41.6925 22.896 41.6856C22.9689 38.683 25.6591 36.2636 28.981 36.2636C32.2022 36.2636 34.8161 38.5442 35.0278 41.4079C35.0452 41.453 35.0556 41.4808 35.066 41.5224V41.9633H35.0278C35.0452 41.9876 35.0556 42.0292 35.066 42.0744V55.1851V55.7231V68.6637V69.2191V71.0172V71.5621C35.066 72.364 35.7741 72.9992 36.6523 72.9992H56.2368C57.1115 72.9992 57.8301 72.364 57.8301 71.5621V71.0172V62.0198V61.4714V55.7266V55.1885V44.1779V44.1571V43.6225V43.6086C57.8301 36.215 55.8966 30.6472 52.0297 26.8844C48.1628 23.1147 42.8796 21.2299 36.1837 21.2299Z" fill="black"/>
<path d="M163.785 22.4394C163.549 21.7243 162.643 21.464 161.872 21.464C158.002 21.464 155.027 23.0954 155.027 23.0954C153.579 23.6682 152.264 24.4839 151.056 25.5426V23.4148V22.7101C151.056 21.9083 150.337 21.2592 149.445 21.2592H133.918H131.093H129.798C128.903 21.2592 128.188 21.9117 128.188 22.7101V23.4113V70.8313V71.5359C128.188 72.3273 128.903 72.9973 129.798 72.9973H131.093H133.918H149.445C149.81 72.9973 150.132 72.8793 150.4 72.7161C150.771 72.5599 150.969 72.2822 151.028 71.8414C151.028 71.8275 151.028 71.8032 151.035 71.7789C151.035 71.7303 151.052 71.6921 151.052 71.6331V40.3299C151.052 38.7227 152.361 37.421 153.972 37.421H160.397L160.404 37.4141H163.014C163.476 37.4141 163.837 37.0878 163.837 36.6747V35.1509V28.4688C163.837 27.2123 163.837 25.9522 163.837 24.6956V22.8524C163.837 22.8385 163.837 22.8212 163.837 22.8212V22.3005L163.785 22.4394Z" fill="black"/>
<path d="M5.449 90.4972H0V87.6428H14.0612V90.4972H8.6379V106.615H5.449V90.4972Z" fill="black"/>
<path d="M16.4122 90.5209C16.3163 90.4344 16.2695 90.3244 16.2695 90.1864V87.8467C16.2695 87.6923 16.3116 87.5683 16.3982 87.4747C16.4824 87.3788 16.6041 87.332 16.7585 87.332H19.1753C19.3298 87.332 19.4444 87.3788 19.5216 87.4747C19.5988 87.5683 19.6363 87.6923 19.6363 87.8467V90.1864C19.6363 90.4952 19.4818 90.6496 19.173 90.6496H16.7562C16.6205 90.6496 16.5058 90.6075 16.4122 90.5209ZM16.3467 92.8348H19.5333V106.615H16.3467V92.8348Z" fill="black"/>
<path d="M24.1218 105.211C23.1368 104.175 22.6455 102.364 22.6455 99.7764C22.6455 97.9422 22.8678 96.508 23.3146 95.4692C23.7592 94.4327 24.3979 93.7051 25.2285 93.284C26.059 92.8628 27.1189 92.6523 28.4033 92.6523C30.0481 92.6523 31.618 92.8324 33.1083 93.1904V95.0176H29.3556C28.4993 95.0176 27.8184 95.151 27.3131 95.4154C26.8077 95.6798 26.431 96.1547 26.183 96.8402C25.935 97.5257 25.8087 98.5037 25.8087 99.7718C25.8087 101.021 25.9327 101.976 26.183 102.64C26.431 103.298 26.8077 103.749 27.3131 103.988C27.8184 104.229 28.5086 104.348 29.3813 104.348H33.3142V106.147C32.6451 106.318 31.8613 106.465 30.9629 106.585C30.0621 106.704 29.1848 106.765 28.3285 106.765C26.5082 106.767 25.1091 106.248 24.1218 105.211Z" fill="black"/>
<path d="M35.9092 87H39.0957V97.8722H40.8458L44.2897 92.835H47.5558L43.1854 99.3134L47.9162 106.615H44.65L40.7967 100.727H39.1004V106.615H35.9139V87H35.9092Z" fill="black"/>
<path d="M52.0129 106.112C51.1472 105.691 50.5202 104.982 50.1341 103.978C49.7504 102.977 49.5586 101.559 49.5586 99.7245C49.5586 97.8575 49.7411 96.4186 50.1084 95.4056C50.4757 94.3949 51.084 93.6836 51.9333 93.2718C52.7803 92.8601 53.9758 92.6542 55.52 92.6542C56.8723 92.6542 57.9415 92.7922 58.7323 93.066C59.5184 93.3397 60.0939 93.8146 60.4542 94.4931C60.8122 95.1693 60.9923 96.1168 60.9923 97.3334C60.9923 98.6015 60.6274 99.5093 59.8998 100.057C59.1698 100.604 58.1123 100.88 56.7249 100.88H52.689C52.7241 101.772 52.8434 102.462 53.0493 102.951C53.2552 103.44 53.6155 103.795 54.1419 104.018C54.6637 104.24 55.4217 104.355 56.416 104.355H60.5806V106.229C59.6541 106.402 58.8282 106.53 58.0982 106.617C57.3706 106.701 56.5354 106.746 55.5925 106.746C54.0741 106.741 52.8785 106.531 52.0129 106.112ZM56.4207 98.9524C57.0384 98.9524 57.4829 98.8308 57.7567 98.5945C58.0304 98.3512 58.1684 97.9324 58.1684 97.3334C58.1684 96.442 57.9719 95.8244 57.5788 95.4828C57.1834 95.1412 56.4979 94.9681 55.5223 94.9681C54.7853 94.9681 54.2145 95.085 53.8144 95.3143C53.4096 95.546 53.1195 95.9437 52.9394 96.5099C52.7592 97.0761 52.668 97.8903 52.668 98.9524H56.4207Z" fill="black"/>
<path d="M65.816 105.53C65.1562 104.81 64.8451 103.596 64.8778 101.881L64.9831 95.3999H62.8213V93.3433L65.0837 92.8286L65.5469 88.9729H68.0386V92.8286H71.5341V95.3999H68.0386V101.853C68.0386 102.66 68.1884 103.219 68.4902 103.537C68.7873 103.855 69.178 104.038 69.6577 104.089L71.3796 104.269V106.609H69.0915C67.5684 106.611 66.4758 106.251 65.816 105.53Z" fill="black"/>
<path d="M76.0846 106.627C75.006 106.533 74.2246 106.4 73.745 106.227V104.353H79.6829C80.3848 104.353 80.8972 104.257 81.2107 104.07C81.5289 103.88 81.6856 103.494 81.6856 102.914V102.425C81.6856 101.962 81.5382 101.613 81.2388 101.384C80.937 101.15 80.4527 101.037 79.7859 101.037H77.7013C74.9265 101.037 73.5391 99.8301 73.5391 97.4133V96.6412C73.5391 95.3053 73.9415 94.3156 74.7487 93.6722C75.5558 93.0288 76.9175 92.7083 78.836 92.7083C79.6057 92.7083 80.4948 92.7645 81.4961 92.8744C82.4998 92.9867 83.2742 93.1107 83.8217 93.2464V95.1228H78.2183C77.5492 95.1228 77.0579 95.2398 76.7373 95.4691C76.4215 95.703 76.2624 96.0914 76.2624 96.6389V97.1279C76.2624 97.659 76.4262 98.0146 76.7514 98.1947C77.0789 98.3749 77.5913 98.4638 78.2955 98.4638H80.4269C81.7441 98.4638 82.7408 98.7726 83.4076 99.3903C84.0767 100.008 84.4113 100.881 84.4113 102.013V103.141C84.4113 104.479 83.9668 105.417 83.0754 105.955C82.184 106.496 80.8481 106.767 79.0653 106.767C78.1598 106.769 77.1632 106.72 76.0846 106.627Z" fill="black"/>
<path d="M98.5525 90.4972H93.1035V87.6428H107.165V90.4972H101.741V106.615H98.5548V90.4972H98.5525Z" fill="black"/>
<path d="M110.351 106.099C109.459 105.671 108.804 104.953 108.383 103.942C107.962 102.929 107.754 101.516 107.754 99.7004C107.754 97.8147 107.962 96.3664 108.383 95.3581C108.804 94.345 109.455 93.6455 110.339 93.2501C111.221 92.8547 112.417 92.6581 113.924 92.6581C115.447 92.6581 116.654 92.8593 117.536 93.2641C118.418 93.6665 119.073 94.3778 119.501 95.3955C119.932 96.4179 120.145 97.8521 120.145 99.7028C120.145 101.553 119.939 102.985 119.527 103.996C119.115 105.007 118.462 105.718 117.571 106.13C116.68 106.541 115.465 106.747 113.921 106.747C112.433 106.743 111.242 106.527 110.351 106.099ZM115.711 103.888C116.13 103.682 116.443 103.259 116.649 102.616C116.855 101.972 116.956 100.994 116.956 99.6723C116.956 98.3692 116.855 97.3959 116.649 96.7548C116.443 96.1138 116.127 95.6926 115.711 95.4961C115.29 95.2996 114.693 95.199 113.924 95.199C113.17 95.199 112.583 95.2996 112.162 95.4961C111.741 95.6926 111.432 96.1138 111.226 96.7548C111.02 97.3959 110.915 98.3692 110.915 99.6723C110.915 100.992 111.02 101.97 111.226 102.616C111.432 103.261 111.743 103.682 112.162 103.888C112.581 104.094 113.17 104.197 113.924 104.197C114.693 104.197 115.29 104.094 115.711 103.888Z" fill="black"/>
<path d="M132.187 105.636C131.323 104.901 130.722 103.832 130.387 102.437C130.05 101.038 129.887 99.2624 129.887 97.1006C129.887 94.892 130.079 93.0975 130.462 91.7171C130.851 90.3368 131.536 89.2839 132.519 88.554C133.506 87.824 134.901 87.4614 136.697 87.4614C138.789 87.4614 140.888 87.7187 142.996 88.2334V90.676C142.362 90.5894 141.505 90.5099 140.436 90.4327C139.365 90.3555 138.298 90.3181 137.235 90.3181C136.087 90.3181 135.219 90.5333 134.629 90.9614C134.035 91.3896 133.628 92.0821 133.408 93.0437C133.186 94.0053 133.071 95.367 133.071 97.131C133.071 98.9326 133.186 100.306 133.408 101.258C133.63 102.21 134.004 102.872 134.526 103.252C135.05 103.626 135.808 103.815 136.803 103.815C137.507 103.815 138.209 103.75 138.908 103.609C139.613 103.471 140.237 103.31 140.787 103.123V98.7524H136.957V96.2818C137.469 96.2162 138.129 96.1531 138.936 96.1039C139.741 96.0548 140.532 96.0267 141.302 96.0267C142.329 96.0267 143.178 96.0548 143.845 96.1039V106.618H141.456L141.019 105.306C140.35 105.682 139.554 106.017 138.63 106.307C137.703 106.6 136.754 106.747 135.776 106.747C134.248 106.742 133.052 106.373 132.187 105.636Z" fill="black"/>
<path d="M147.469 92.8348H149.937L150.658 95.0434C151.257 94.29 151.895 93.7051 152.571 93.284C153.248 92.8628 154.015 92.6523 154.871 92.6523C155.283 92.6523 155.669 92.7038 156.029 92.8067V96.0471C155.377 95.9792 154.855 95.9418 154.46 95.9418C153.652 95.9418 152.957 96.0752 152.377 96.3419C151.792 96.6063 151.222 97.0321 150.655 97.6146V106.613H147.469V92.8348Z" fill="black"/>
<path d="M160.54 106.112C159.675 105.691 159.048 104.982 158.661 103.978C158.278 102.977 158.086 101.559 158.086 99.7245C158.086 97.8575 158.268 96.4186 158.636 95.4056C159.003 94.3949 159.611 93.6836 160.461 93.2718C161.308 92.8601 162.503 92.6542 164.047 92.6542C165.4 92.6542 166.469 92.7922 167.26 93.066C168.046 93.3397 168.621 93.8146 168.982 94.4931C169.34 95.1693 169.52 96.1168 169.52 97.3334C169.52 98.6015 169.155 99.5093 168.427 100.057C167.697 100.604 166.64 100.88 165.252 100.88H161.216C161.251 101.772 161.371 102.462 161.577 102.951C161.783 103.44 162.143 103.795 162.669 104.018C163.191 104.24 163.949 104.355 164.943 104.355H169.108V106.229C168.181 106.402 167.356 106.53 166.626 106.617C165.898 106.701 165.063 106.746 164.12 106.746C162.601 106.741 161.404 106.531 160.54 106.112ZM164.948 98.9524C165.566 98.9524 166.01 98.8308 166.284 98.5945C166.558 98.3512 166.696 97.9324 166.696 97.3334C166.696 96.442 166.499 95.8244 166.106 95.4828C165.711 95.1412 165.025 94.9681 164.05 94.9681C163.313 94.9681 162.742 95.085 162.342 95.3143C161.937 95.546 161.647 95.9437 161.467 96.5099C161.287 97.0761 161.195 97.8903 161.195 98.9524H164.948Z" fill="black"/>
<path d="M172.929 105.827C172.288 105.2 171.965 104.36 171.965 103.295V102.139C171.965 101.042 172.339 100.17 173.085 99.5167C173.829 98.8687 174.941 98.5411 176.415 98.5411H180.348V97.3315C180.348 96.8168 180.261 96.405 180.093 96.0986C179.92 95.7897 179.604 95.5558 179.143 95.3896C178.68 95.2306 178.01 95.1463 177.138 95.1463H172.976V93.2957C174.534 92.8652 176.335 92.6523 178.373 92.6523C180.121 92.6523 181.419 92.9939 182.266 93.6794C183.116 94.3649 183.541 95.5136 183.541 97.1256V106.613H181.047L180.509 105.12C180.336 105.272 179.985 105.483 179.454 105.75C178.923 106.016 178.303 106.253 177.592 106.458C176.88 106.664 176.174 106.767 175.47 106.767C174.417 106.767 173.572 106.454 172.929 105.827ZM178.921 104.159C179.716 103.911 180.193 103.744 180.345 103.658V100.057L177.365 100.212C175.872 100.331 175.128 100.993 175.128 102.191V102.757C175.128 103.375 175.303 103.819 175.657 104.093C176.005 104.367 176.459 104.514 177.007 104.531C177.484 104.531 178.123 104.407 178.921 104.159Z" fill="black"/>
<path d="M188.686 105.53C188.026 104.81 187.715 103.596 187.748 101.881L187.853 95.3999H185.691V93.3433L187.954 92.8286L188.417 88.9729H190.909V92.8286H194.404V95.3999H190.909V101.853C190.909 102.66 191.059 103.219 191.36 103.537C191.657 103.855 192.048 104.038 192.528 104.089L194.25 104.269V106.609H191.962C190.439 106.611 189.348 106.251 188.686 105.53Z" fill="black"/>
<path d="M205.445 105.946C204.582 105.412 204.146 104.343 204.146 102.731V91.7816C204.146 90.324 204.542 89.2712 205.33 88.6184C206.116 87.968 207.069 87.6428 208.182 87.6428C209.794 87.6428 211.182 87.6686 212.349 87.72C213.514 87.7715 214.848 87.8417 216.357 87.9259V90.5744H209.188C208.587 90.5744 208.124 90.7241 207.799 91.0236C207.473 91.3231 207.31 91.7723 207.31 92.3712V95.7379L215.201 95.9181V98.4098L207.31 98.5923V101.856C207.31 103.126 207.927 103.756 209.16 103.756H216.357V106.407C214.2 106.594 211.594 106.704 208.543 106.741C207.345 106.744 206.313 106.479 205.445 105.946Z" fill="black"/>
<path d="M218.287 92.8356H221.551L224.997 103.659L228.521 92.8356H231.759L226.745 106.616H223.095L218.287 92.8356Z" fill="black"/>
<path d="M235.546 106.112C234.683 105.691 234.056 104.982 233.672 103.978C233.284 102.977 233.092 101.559 233.092 99.7245C233.092 97.8575 233.277 96.4186 233.644 95.4056C234.014 94.3949 234.622 93.6836 235.469 93.2718C236.316 92.8601 237.514 92.6542 239.053 92.6542C240.408 92.6542 241.479 92.7922 242.268 93.066C243.056 93.3397 243.629 93.8146 243.987 94.4931C244.348 95.1693 244.528 96.1168 244.528 97.3334C244.528 98.6015 244.165 99.5093 243.433 100.057C242.705 100.604 241.648 100.88 240.26 100.88H236.225C236.26 101.772 236.377 102.462 236.582 102.951C236.788 103.44 237.153 103.795 237.675 104.018C238.199 104.24 238.957 104.355 239.952 104.355H244.116V106.229C243.19 106.402 242.364 106.53 241.634 106.617C240.904 106.701 240.069 106.746 239.128 106.746C237.607 106.741 236.414 106.531 235.546 106.112ZM239.954 98.9524C240.572 98.9524 241.016 98.8308 241.292 98.5945C241.564 98.3512 241.704 97.9324 241.704 97.3334C241.704 96.442 241.505 95.8244 241.11 95.4828C240.717 95.1412 240.031 94.9681 239.053 94.9681C238.318 94.9681 237.745 95.085 237.345 95.3143C236.945 95.5436 236.65 95.9437 236.473 96.5099C236.292 97.0761 236.204 97.8903 236.204 98.9524H239.954Z" fill="black"/>
<path d="M247.617 92.8337H250.212L250.804 94.2726C251.438 93.7953 252.161 93.3952 252.975 93.0771C253.789 92.7612 254.599 92.6021 255.406 92.6021C256.915 92.6021 258 93.042 258.67 93.9263C259.339 94.8084 259.676 95.9782 259.676 97.4334V106.612H256.487V97.8218C256.487 97.0872 256.281 96.5093 255.869 96.0999C255.457 95.6904 254.9 95.4822 254.199 95.4822C253.565 95.4822 252.98 95.5781 252.451 95.7653C251.922 95.9525 251.372 96.2356 250.806 96.6122V106.612H247.62V92.8337H247.617Z" fill="black"/>
<path d="M264.851 105.53C264.193 104.81 263.877 103.596 263.915 101.881L264.016 95.3999H261.858V93.3433L264.121 92.8286L264.582 88.9729H267.076V92.8286H270.571V95.3999H267.076V101.853C267.076 102.66 267.223 103.219 267.523 103.537C267.824 103.855 268.213 104.038 268.692 104.089L270.414 104.269V106.609H268.124C266.603 106.611 265.511 106.251 264.851 105.53Z" fill="black"/>
<path d="M275.122 106.627C274.041 106.533 273.262 106.4 272.782 106.227V104.353H278.72C279.424 104.353 279.932 104.257 280.25 104.07C280.566 103.88 280.725 103.494 280.725 102.914V102.425C280.725 101.962 280.575 101.613 280.274 101.384C279.976 101.15 279.492 101.037 278.823 101.037H276.741C273.961 101.037 272.576 99.8301 272.576 97.4133V96.6412C272.576 95.3053 272.979 94.3156 273.786 93.6722C274.591 93.0312 275.952 92.7083 277.871 92.7083C278.643 92.7083 279.53 92.7645 280.533 92.8744C281.537 92.9867 282.311 93.1107 282.861 93.2464V95.1228H277.255C276.589 95.1228 276.095 95.2398 275.779 95.4691C275.461 95.703 275.304 96.0914 275.304 96.6389V97.1279C275.304 97.659 275.466 98.0146 275.793 98.1947C276.118 98.3749 276.631 98.4638 277.333 98.4638H279.466C280.786 98.4638 281.78 98.7726 282.449 99.3903C283.116 100.008 283.451 100.881 283.451 102.013V103.141C283.451 104.479 283.006 105.417 282.115 105.955C281.223 106.496 279.888 106.767 278.105 106.767C277.192 106.769 276.203 106.72 275.122 106.627Z" fill="black"/>
<path d="M286.342 106.508C286.246 106.424 286.199 106.312 286.199 106.174V103.733C286.199 103.406 286.361 103.245 286.688 103.245H288.511C288.836 103.245 289 103.406 289 103.733V106.174C289 106.483 288.836 106.637 288.511 106.637H286.688C286.55 106.639 286.436 106.597 286.342 106.508Z" fill="black"/>
</svg>
