<svg width="16" height="16" xmlns="http://www.w3.org/2000/svg" viewBox="0 0 16 16"><g fill="currentColor"><path d="M3.927 16c-.292 0-.585-.099-.82-.297a1.113 1.113 0 0 1-.093-1.634l1.69-1.78a1.278 1.278 0 0 1 1.697-.116l.678.531 1.414-1.617c.23-.264.573-.418.935-.42h.01c.359 0 .699.148.933.404l2.7 2.976c.442.486.38 1.216-.133 1.633a1.277 1.277 0 0 1-1.73-.126l-1.751-1.93-1.27 1.452a1.25 1.25 0 0 1-.832.415 1.273 1.273 0 0 1-.9-.262l-.714-.562-.901.948a1.257 1.257 0 0 1-.913.385Z"/><path opacity=".65" d="M4.693 9.08a1.327 1.327 0 0 1-1.1-2.07A5.677 5.677 0 0 1 8.308 4.5a5.675 5.675 0 0 1 4.71 2.504 1.328 1.328 0 1 1-2.2 1.487 3.027 3.027 0 0 0-5.023.003c-.256.38-.675.586-1.102.586Z"/><path opacity=".65" d="M1.36 5.572a1.328 1.328 0 0 1-.977-2.225A10.369 10.369 0 0 1 8 0a10.37 10.37 0 0 1 7.617 3.347 1.328 1.328 0 1 1-1.956 1.796A7.708 7.708 0 0 0 8 2.656a7.707 7.707 0 0 0-5.66 2.487 1.325 1.325 0 0 1-.979.429Z"/></g></svg>
