<?xml version="1.0" encoding="UTF-8" standalone="no"?>
<!-- Created with Inkscape (http://www.inkscape.org/) -->

<svg
   width="227.33913"
   height="16"
   viewBox="0 0 227.33913 16"
   version="1.1"
   xmlns="http://www.w3.org/2000/svg"
   xmlns:svg="http://www.w3.org/2000/svg">
    <g
       fill="currentColor"
       transform="scale(6.9565217)">
      <path
         d="M 0.6,0.4 H 0 V 0.08 H 1.59 V 0.4 H 0.98 V 2.22 H 0.6 Z M 1.85,0.4 1.83,0.37 V 0.11 L 1.85,0.05 1.91,0.03 h 0.26 c 0.03,0 0.03,0 0.03,0.02 V 0.37 C 2.2,0.4 2.17,0.42 2.14,0.42 H 1.88 C 1.88,0.4 1.85,0.4 1.85,0.4 Z m 0,0.26 H 2.22 V 2.22 H 1.85 Z m 0.88,1.4 C 2.62,1.96 2.57,1.75 2.57,1.46 2.57,1.24 2.59,1.08 2.65,0.98 2.7,0.88 2.78,0.77 2.85,0.74 2.94,0.71 3.07,0.66 3.23,0.66 3.41,0.66 3.6,0.69 3.76,0.71 V 0.93 H 3.33 c -0.1,0 -0.18,0.02 -0.23,0.05 a 0.27,0.27 0 0 0 -0.14,0.16 1.04,1.04 0 0 0 0,0.66 C 2.99,1.88 3.04,1.93 3.1,1.96 3.15,1.98 3.23,2.01 3.33,2.01 H 3.78 V 2.22 C 3.7,2.25 3.62,2.25 3.52,2.28 3.42,2.3 3.31,2.3 3.22,2.3 2.99,2.22 2.83,2.17 2.72,2.06 Z M 4.05,0 H 4.42 V 1.22 H 4.6 L 5,0.63 H 5.37 L 4.87,1.38 5.4,2.2 H 5.03 L 4.6,1.53 H 4.42 V 2.2 H 4.05 Z M 5.87,2.17 C 5.77,2.12 5.72,2.04 5.67,1.93 5.61,1.83 5.61,1.67 5.61,1.46 5.61,1.24 5.64,1.08 5.66,0.98 5.72,0.88 5.76,0.79 5.87,0.74 5.98,0.69 6.11,0.66 6.27,0.66 c 0.16,0 0.27,0.03 0.37,0.05 0.08,0.03 0.16,0.08 0.19,0.16 0.05,0.08 0.05,0.19 0.05,0.32 0,0.13 -0.05,0.24 -0.13,0.32 A 0.68,0.68 0 0 1 6.38,1.61 H 5.93 c 0,0.11 0.02,0.19 0.05,0.24 0.03,0.05 0.05,0.1 0.13,0.13 0.05,0.03 0.13,0.03 0.27,0.03 H 6.85 V 2.22 L 6.56,2.28 6.27,2.3 C 6.11,2.22 5.98,2.2 5.87,2.17 Z M 6.37,1.35 C 6.46,1.35 6.51,1.32 6.54,1.3 A 0.2,0.2 0 0 0 6.59,1.16 C 6.59,1.06 6.56,1.01 6.51,0.96 A 0.53,0.53 0 0 0 6.27,0.9 C 6.19,0.9 6.11,0.93 6.09,0.93 6.03,0.95 6.01,1.01 5.98,1.06 5.95,1.11 5.95,1.22 5.95,1.32 c 0,0.03 0.43,0.03 0.43,0.03 z M 7.43,2.09 C 7.36,2.01 7.33,1.88 7.33,1.67 V 0.93 H 7.09 V 0.69 L 7.36,0.63 7.41,0.21 H 7.7 v 0.42 h 0.4 v 0.3 H 7.7 v 0.74 c 0,0.08 0.03,0.16 0.05,0.18 A 0.2,0.2 0 0 0 7.88,1.9 L 8.07,1.93 V 2.2 H 7.81 A 0.42,0.42 0 0 1 7.43,2.09 Z M 8.6,2.22 A 0.57,0.57 0 0 1 8.33,2.17 V 1.96 H 9 c 0.08,0 0.13,0 0.18,-0.03 C 9.21,1.9 9.23,1.88 9.23,1.8 V 1.75 C 9.23,1.69 9.21,1.67 9.18,1.64 9.15,1.61 9.1,1.61 9.02,1.61 H 8.78 C 8.47,1.61 8.31,1.48 8.31,1.21 V 1.14 c 0,-0.16 0.05,-0.27 0.13,-0.35 0.08,-0.08 0.24,-0.1 0.45,-0.1 0.08,0 0.19,0 0.3,0.02 0.1,0 0.2,0.03 0.26,0.06 v 0.2 H 8.8 C 8.72,0.97 8.67,1.01 8.64,1.01 A 0.2,0.2 0 0 0 8.59,1.14 v 0.05 c 0,0.05 0.03,0.1 0.05,0.13 0.03,0.03 0.1,0.03 0.19,0.03 h 0.24 c 0.15,0 0.26,0.03 0.34,0.1 0.08,0.08 0.1,0.16 0.1,0.3 V 1.88 C 9.51,2.04 9.46,2.14 9.36,2.2 9.25,2.25 9.09,2.28 8.91,2.28 8.83,2.22 8.72,2.22 8.59,2.22 Z M 11.14,0.4 H 10.53 V 0.08 h 1.59 V 0.4 h -0.61 v 1.82 h -0.37 z m 1.35,1.74 A 0.38,0.38 0 0 1 12.28,1.9 1.1,1.1 0 0 1 12.2,1.43 c 0,-0.21 0.02,-0.37 0.08,-0.5 0.05,-0.11 0.13,-0.19 0.2,-0.24 0.11,-0.06 0.25,-0.08 0.4,-0.08 0.19,0 0.32,0.02 0.4,0.08 0.1,0.05 0.19,0.13 0.21,0.24 0.06,0.1 0.08,0.29 0.08,0.47 0,0.19 -0.02,0.37 -0.08,0.48 a 0.62,0.62 0 0 1 -0.2,0.24 0.86,0.86 0 0 1 -0.43,0.08 c -0.13,0.02 -0.3,0 -0.37,-0.06 z m 0.6,-0.24 c 0.06,-0.02 0.09,-0.07 0.11,-0.13 0.03,-0.05 0.03,-0.18 0.03,-0.34 0,-0.16 0,-0.27 -0.03,-0.32 C 13.18,1.06 13.15,0.98 13.1,0.98 13.04,0.95 13,0.95 12.89,0.95 c -0.08,0 -0.16,0 -0.22,0.03 -0.05,0.03 -0.08,0.08 -0.1,0.13 -0.03,0.05 -0.03,0.19 -0.03,0.32 0,0.16 0,0.26 0.03,0.34 0.02,0.08 0.05,0.13 0.1,0.13 0.06,0 0.1,0.03 0.22,0.03 0.07,0 0.15,0 0.2,-0.03 z m 1.86,0.19 C 14.85,2.01 14.79,1.88 14.74,1.72 a 3.72,3.72 0 0 1 0,-1.22 0.9,0.9 0 0 1 0.24,-0.37 C 15.08,0.05 15.24,0 15.45,0 c 0.24,0 0.48,0.03 0.72,0.08 V 0.34 L 15.87,0.32 H 15.5 c -0.13,0 -0.23,0.02 -0.29,0.08 -0.08,0.05 -0.1,0.13 -0.13,0.23 -0.03,0.11 -0.03,0.27 -0.03,0.45 0,0.22 0,0.38 0.03,0.48 0.03,0.1 0.08,0.19 0.13,0.24 0.06,0.05 0.14,0.05 0.27,0.05 0.08,0 0.16,0 0.24,-0.02 C 15.8,1.8 15.88,1.8 15.92,1.77 V 1.27 H 15.5 v -0.3 l 0.22,-0.02 h 0.56 v 1.2 H 16 L 15.94,1.98 A 0.8,0.8 0 0 1 15.68,2.09 C 15.58,2.12 15.47,2.14 15.36,2.14 15.18,2.22 15.04,2.2 14.94,2.09 Z m 1.72,-1.43 h 0.29 l 0.08,0.24 c 0.08,-0.08 0.13,-0.16 0.21,-0.21 a 0.45,0.45 0 0 1 0.27,-0.08 c 0.05,0 0.07,0 0.13,0.02 v 0.38 h -0.19 c -0.08,0 -0.16,0.02 -0.24,0.05 a 0.8,0.8 0 0 0 -0.18,0.13 v 1 h -0.37 z m 1.48,1.51 C 18.05,2.12 17.99,2.04 17.94,1.93 17.89,1.83 17.89,1.67 17.89,1.46 c 0,-0.22 0.02,-0.38 0.05,-0.48 0.05,-0.1 0.1,-0.19 0.21,-0.24 0.1,-0.05 0.24,-0.08 0.4,-0.08 0.16,0 0.26,0.03 0.37,0.05 0.08,0.03 0.16,0.08 0.18,0.16 0.06,0.08 0.06,0.19 0.06,0.32 0,0.13 -0.06,0.24 -0.14,0.32 a 0.68,0.68 0 0 1 -0.37,0.1 H 18.2 c 0,0.11 0.03,0.19 0.06,0.24 0.02,0.05 0.05,0.1 0.13,0.13 0.05,0.03 0.13,0.03 0.26,0.03 h 0.48 V 2.22 L 18.83,2.28 18.55,2.3 C 18.39,2.22 18.25,2.2 18.15,2.17 Z m 0.5,-0.82 c 0.08,0 0.14,-0.03 0.16,-0.05 a 0.2,0.2 0 0 0 0.05,-0.14 c 0,-0.1 -0.02,-0.15 -0.07,-0.2 A 0.53,0.53 0 0 0 18.55,0.9 c -0.08,0 -0.16,0.03 -0.19,0.03 -0.05,0.02 -0.08,0.08 -0.1,0.13 -0.03,0.05 -0.03,0.16 -0.03,0.26 0,0.03 0.42,0.03 0.42,0.03 z m 0.9,0.77 C 19.47,2.04 19.45,1.96 19.45,1.82 V 1.7 c 0,-0.13 0.05,-0.2 0.13,-0.29 0.08,-0.08 0.21,-0.1 0.37,-0.1 H 20.4 V 1.17 c 0,-0.05 0,-0.1 -0.03,-0.13 A 0.37,0.37 0 0 0 20.27,0.96 C 20.21,0.94 20.13,0.94 20.03,0.94 H 19.55 V 0.7 c 0.19,-0.05 0.37,-0.08 0.61,-0.08 0.19,0 0.35,0.03 0.45,0.11 0.1,0.08 0.13,0.21 0.13,0.4 V 2.21 H 20.45 L 20.4,2.05 A 0.28,0.28 0 0 1 20.27,2.13 L 20.06,2.21 C 19.98,2.24 19.9,2.24 19.82,2.24 A 0.5,0.5 0 0 1 19.55,2.11 Z M 20.25,1.93 20.4,1.88 V 1.48 L 20.06,1.51 C 19.9,1.53 19.79,1.59 19.79,1.72 v 0.05 c 0,0.08 0.03,0.13 0.05,0.16 0.03,0.03 0.08,0.05 0.16,0.05 0.08,0 0.13,-0.02 0.24,-0.05 z m 1.08,0.16 C 21.25,2.01 21.22,1.88 21.22,1.67 V 0.93 H 20.98 V 0.69 L 21.25,0.63 21.3,0.21 h 0.29 v 0.42 h 0.4 v 0.3 h -0.4 v 0.74 c 0,0.08 0.03,0.16 0.05,0.18 a 0.2,0.2 0 0 0 0.14,0.05 l 0.18,0.03 V 2.2 H 21.7 A 0.42,0.42 0 0 1 21.33,2.09 Z m 1.9,0.05 C 23.13,2.09 23.07,1.96 23.07,1.77 V 0.53 c 0,-0.16 0.05,-0.3 0.13,-0.37 0.08,-0.08 0.19,-0.1 0.32,-0.1 H 24 l 0.45,0.02 v 0.29 h -0.82 c -0.08,0 -0.13,0.03 -0.16,0.05 -0.03,0.03 -0.05,0.08 -0.05,0.16 v 0.37 l 0.9,0.03 v 0.29 l -0.9,0.03 v 0.37 c 0,0.13 0.08,0.2 0.2,0.2 h 0.83 v 0.3 C 24.21,2.2 23.92,2.2 23.57,2.2 A 0.5,0.5 0 0 1 23.23,2.14 Z m 1.46,-1.48 h 0.37 l 0.4,1.22 0.39,-1.22 h 0.37 l -0.56,1.56 h -0.42 z m 1.95,1.51 C 26.54,2.12 26.48,2.04 26.44,1.93 26.38,1.83 26.38,1.67 26.38,1.46 c 0,-0.22 0.03,-0.38 0.05,-0.48 0.05,-0.1 0.1,-0.19 0.21,-0.24 0.1,-0.05 0.24,-0.08 0.4,-0.08 0.16,0 0.27,0.03 0.37,0.05 0.1,0.03 0.16,0.08 0.19,0.16 0.05,0.08 0.05,0.19 0.05,0.32 0,0.13 -0.05,0.24 -0.13,0.32 a 0.68,0.68 0 0 1 -0.37,0.1 H 26.7 c 0,0.11 0.02,0.19 0.05,0.24 0.03,0.05 0.05,0.1 0.13,0.13 0.05,0.03 0.13,0.03 0.27,0.03 h 0.47 V 2.22 L 27.33,2.28 27.04,2.3 C 26.88,2.22 26.72,2.2 26.64,2.17 Z m 0.5,-0.82 c 0.09,0 0.14,-0.03 0.17,-0.05 a 0.2,0.2 0 0 0 0.05,-0.14 c 0,-0.1 -0.03,-0.15 -0.08,-0.2 A 0.53,0.53 0 0 0 27.04,0.9 c -0.08,0 -0.16,0.03 -0.18,0.03 -0.03,0 -0.08,0.08 -0.11,0.13 -0.03,0.05 -0.03,0.16 -0.03,0.26 0,0.03 0.43,0.03 0.43,0.03 z M 28,0.66 h 0.28 l 0.08,0.16 c 0.08,-0.05 0.16,-0.1 0.24,-0.13 a 0.94,0.94 0 0 1 0.27,-0.06 c 0.15,0 0.29,0.06 0.37,0.16 0.08,0.11 0.1,0.24 0.1,0.4 v 1.03 h -0.37 v -1 c 0,-0.08 -0.02,-0.16 -0.08,-0.19 -0.05,-0.02 -0.1,-0.08 -0.18,-0.08 -0.08,0 -0.14,0 -0.19,0.03 -0.05,0.03 -0.13,0.05 -0.18,0.1 v 1.14 h -0.37 z m 1.95,1.43 C 29.87,2.01 29.85,1.88 29.85,1.67 V 0.93 H 29.61 V 0.69 l 0.26,-0.06 0.05,-0.42 h 0.3 v 0.42 h 0.4 v 0.3 h -0.4 v 0.74 c 0,0.08 0.02,0.16 0.05,0.18 A 0.2,0.2 0 0 0 30.4,1.9 l 0.19,0.03 V 2.2 H 30.32 C 30.14,2.22 30.03,2.17 29.95,2.09 Z m 1.16,0.13 A 0.57,0.57 0 0 1 30.85,2.17 V 1.96 h 0.66 c 0.08,0 0.13,0 0.19,-0.03 C 31.72,1.9 31.75,1.88 31.75,1.8 V 1.75 C 31.75,1.69 31.72,1.67 31.7,1.64 31.67,1.61 31.62,1.61 31.54,1.61 H 31.3 c -0.32,0 -0.48,-0.13 -0.48,-0.4 V 1.14 c 0,-0.16 0.06,-0.27 0.14,-0.35 0.08,-0.08 0.23,-0.1 0.45,-0.1 0.08,0 0.18,0 0.29,0.02 0.1,0 0.2,0.03 0.26,0.06 v 0.2 h -0.63 c -0.08,0 -0.14,0.04 -0.16,0.04 a 0.2,0.2 0 0 0 -0.06,0.13 v 0.05 c 0,0.05 0.03,0.1 0.06,0.13 0.02,0.03 0.1,0.03 0.18,0.03 h 0.24 c 0.16,0 0.27,0.03 0.35,0.1 0.07,0.08 0.1,0.16 0.1,0.3 v 0.13 c 0,0.16 -0.05,0.26 -0.16,0.32 -0.1,0.05 -0.26,0.08 -0.45,0.08 C 31.35,2.22 31.23,2.22 31.11,2.22 Z M 32.38,2.2 32.36,2.17 V 1.9 c 0,-0.02 0.02,-0.05 0.05,-0.05 h 0.21 c 0.03,0 0.06,0.03 0.06,0.05 v 0.27 c 0,0.03 -0.03,0.05 -0.06,0.05 h -0.2 c 0,0 -0.04,0 -0.04,-0.02 z"
      />
    </g>
</svg>
